<svg width="76" height="80" viewBox="0 0 76 80" fill="none" xmlns="http://www.w3.org/2000/svg">
<path d="M24.84 64C20.44 64 16.88 67.6 16.88 72C16.88 76.4 20.44 80 24.84 80C29.24 80 32.84 76.4 32.84 72C32.84 67.6 29.24 64 24.84 64ZM0.84 0V8H8.84L23.24 38.36L17.84 48.16C17.2 49.28 16.84 50.6 16.84 52C16.84 56.4 20.44 60 24.84 60H72.84V52H26.52C25.96 52 25.52 51.56 25.52 51L25.64 50.52L29.24 44H59.04C62.04 44 64.68 42.36 66.04 39.88L80.36 13.92C80.68 13.36 80.84 12.68 80.84 12C80.84 9.8 79.04 8 76.84 8H17.68L13.92 0H0.84ZM64.84 64C60.44 64 56.88 67.6 56.88 72C56.88 76.4 60.44 80 64.84 80C69.24 80 72.84 76.4 72.84 72C72.84 67.6 69.24 64 64.84 64Z" fill="#61256A"/>
</svg>
